<?xml version="1.0" encoding="iso-8859-1"?>
<svg class="t-sociallinks__svg" version="1.1" id="Layer_1" xmlns="http://www.w3.org/2000/svg" xmlns:xlink="http://www.w3.org/1999/xlink" width="25px" height="25px" viewBox="0 0 30 30" xml:space="preserve"><desc>Odnoklassniki</desc><path style="fill:#525252;" d="M15.0010773,29.9969026 C6.71476662,29.9969026 -0.000942760943,23.2811932 -0.000942760943,14.9979126 C-0.000942760943,6.71261195 6.71476662,-0.00107736853 15.0010773,-0.00107736853 C23.2823378,-0.00107736853 29.9990572,6.71261195 29.9990572,14.9979126 C29.9990572,23.2811932 23.2833479,29.9969026 15.0010773,29.9969026 Z M14.9990572,9.16346042 C15.9845639,9.16346042 16.7857961,9.96559598 16.7857961,10.9501993 C16.7857961,11.9366092 15.9845639,12.7378415 14.9990572,12.7378415 C14.0126473,12.7378415 13.2114151,11.9366092 13.2114151,10.9501993 C13.2114151,9.96378937 14.0126473,9.16346042 14.9990572,9.16346042 L14.9990572,9.16346042 L14.9990572,9.16346042 Z M19.3159557,10.9501993 C19.3159557,8.56908521 17.3810746,6.63149426 14.9990572,6.63149426 C12.6170398,6.63149426 10.6803522,8.56908521 10.6803522,10.9501993 C10.6803522,13.3313134 12.6170398,15.2670977 14.9990572,15.2670977 C17.3810746,15.2670977 19.3159557,13.3313134 19.3159557,10.9501993 Z M16.7451474,18.7899904 C17.6249672,18.5876499 18.472268,18.242587 19.2527243,17.752092 C19.8443896,17.3790267 20.0232441,16.5976672 19.6510821,16.0069052 C19.2771135,15.4152399 18.4985739,15.2363853 17.9058953,15.6085473 C16.1354159,16.7214201 13.8590853,16.7214201 12.0904126,15.6085473 C11.4987473,15.2372886 10.7164844,15.4152399 10.3461291,16.0069052 C9.97306376,16.5967639 10.1519183,17.3790267 10.741777,17.752092 C11.5222332,18.2416837 12.3704374,18.5903598 13.2493539,18.7899904 L10.8348175,21.2036235 C10.3416125,21.6977317 10.3416125,22.5007706 10.8348175,22.9930722 C11.0805167,23.2387714 11.4048035,23.3634276 11.7290902,23.3634276 C12.053377,23.3634276 12.3776638,23.2387714 12.6242663,22.9930722 L14.995444,20.6209912 L17.3684284,22.9939756 C17.8625366,23.4871805 18.6637689,23.4871805 19.1560705,22.9939756 C19.6519854,22.4998673 19.6519854,21.6968284 19.1560705,21.2054301 L16.7451474,18.7899904 L16.7451474,18.7899904 L16.7451474,18.7899904 Z"></path></svg>
