<?xml version="1.0" standalone="no"?>
<!DOCTYPE svg PUBLIC "-//W3C//DTD SVG 20010904//EN"
 "http://www.w3.org/TR/2001/REC-SVG-20010904/DTD/svg10.dtd">
<svg version="1.0" xmlns="http://www.w3.org/2000/svg"
 width="700.000000pt" height="700.000000pt" viewBox="0 0 700.000000 700.000000"
 preserveAspectRatio="xMidYMid meet">
<metadata>
Created by potrace 1.11, written by Peter Selinger 2001-2013
</metadata>
<g transform="translate(0.000000,700.000000) scale(0.100000,-0.100000)"
fill="#000000" stroke="none">
<path d="M2047 4950 l-1447 -1450 1450 -1450 1450 -1450 1450 1450 1451 1450
-1450 1450 c-798 798 -1451 1450 -1453 1449 -2 0 -654 -652 -1451 -1449z
m1991 307 l533 -533 -479 -480 c-264 -263 -491 -489 -505 -502 l-24 -23 -532
531 c-292 292 -531 534 -531 538 0 8 992 1002 1000 1002 3 0 245 -240 538
-533z m-1159 -1158 c292 -292 531 -532 531 -533 0 -2 -255 -258 -567 -570
l-567 -567 -531 528 c-293 290 -533 532 -533 538 -2 10 1118 1135 1129 1135 4
0 246 -239 538 -531z m2413 -1102 l-504 -504 -534 534 c-294 293 -534 535
-534 537 0 2 226 230 502 506 l501 502 536 -536 536 -536 -503 -503z m-1193
-118 c292 -291 531 -533 531 -537 0 -4 -254 -261 -565 -572 l-565 -565 -536
536 -536 536 567 566 c312 312 568 567 570 567 1 0 241 -239 534 -531z"/>
</g>
</svg>
