<?xml version="1.0" encoding="UTF-8"?> <svg xmlns="http://www.w3.org/2000/svg" xmlns:xlink="http://www.w3.org/1999/xlink" width="86" height="86" viewBox="0 0 86 86"> <title>guarantee</title> <desc>Created using Figma</desc> <g id="Canvas" transform="translate(39 40)"> <g id="guarantee"> <g id="Vector"> <use xlink:href="#path0_fill" transform="translate(-10.5755 -8.47943)" fill="#000"></use> </g> <g id="Vector"> <use xlink:href="#path1_fill" transform="translate(-38.122 -39.476)" fill="#000"></use> </g> </g> </g> <defs> <path id="path0_fill" d="M 28.0065 0.500428L 11.1265 19.4084L 2.5605 10.8434C 1.9745 10.2574 1.0255 10.2574 0.439498 10.8434C -0.146502 11.4294 -0.146502 12.3784 0.439498 12.9644L 10.1275 22.6524C 10.4085 22.9344 10.7905 23.0914 11.1885 23.0914C 11.2025 23.0914 11.2165 23.0914 11.2305 23.0904C 11.6435 23.0784 12.0325 22.8984 12.3075 22.5904L 30.2455 2.49843C 30.7975 1.88043 30.7435 0.932429 30.1255 0.380429C 29.5055 -0.170571 28.5595 -0.116572 28.0065 0.500428Z"></path> <path id="path1_fill" d="M 84.197 42.476C 84.225 42.362 84.244 42.244 84.244 42.121C 84.244 38.123 80.097 36.057 76.437 34.233C 73.839 32.939 71.154 31.6 70.439 29.913C 69.711 28.191 70.739 25.385 71.731 22.67C 73.115 18.887 74.545 14.976 71.906 12.339C 69.318 9.751 65.534 10.627 61.873 11.478C 59.311 12.072 56.66 12.685 54.895 11.939C 53.172 11.21 51.74 8.95 50.355 6.762C 48.346 3.593 46.071 1.67847e-07 42.122 1.67847e-07C 38.166 1.67847e-07 35.934 3.671 33.966 6.911C 32.6 9.16 31.187 11.484 29.466 12.212C 27.707 12.957 25.028 12.282 22.438 11.631C 18.748 10.705 14.933 9.743 12.339 12.34C 9.718 14.96 10.988 18.891 12.218 22.694C 13.096 25.407 14.003 28.213 13.269 29.95C 12.553 31.644 9.987 32.971 7.504 34.255C 3.987 36.073 -2.17438e-07 38.134 -2.17438e-07 42.123C -2.17438e-07 42.247 0.0200001 42.366 0.0480001 42.481C 0.0200001 42.595 0.00100019 42.713 0.00100019 42.836C 0.00100019 46.825 3.988 48.886 7.506 50.704C 9.987 51.987 12.554 53.314 13.27 55.008C 14.004 56.745 13.097 59.551 12.219 62.265C 10.99 66.067 9.719 69.997 12.339 72.618C 14.935 75.215 18.75 74.256 22.439 73.327C 25.03 72.677 27.71 72.004 29.468 72.748C 31.188 73.475 32.601 75.799 33.967 78.047C 35.936 81.286 38.167 84.957 42.123 84.957C 46.072 84.957 48.348 81.364 50.356 78.195C 51.742 76.007 53.174 73.747 54.894 73.018C 56.666 72.27 59.312 72.884 61.873 73.479C 65.532 74.328 69.318 75.208 71.904 72.619C 74.546 69.981 73.115 66.069 71.731 62.287C 70.738 59.572 69.711 56.766 70.438 55.046C 71.154 53.358 73.839 52.019 76.437 50.725C 80.096 48.902 84.244 46.835 84.244 42.837C 84.245 42.71 84.225 42.591 84.197 42.476ZM 75.1 48.036C 72.015 49.573 68.825 51.163 67.676 53.874C 66.489 56.684 67.722 60.055 68.914 63.314C 70.022 66.345 71.07 69.21 69.783 70.494C 68.374 71.906 65.544 71.249 62.551 70.555C 59.523 69.853 56.392 69.126 53.726 70.253C 51.141 71.347 49.454 74.011 47.822 76.587C 46.073 79.347 44.421 81.954 42.123 81.954C 39.854 81.954 38.24 79.298 36.53 76.486C 34.917 73.831 33.248 71.085 30.636 69.982C 27.951 68.844 24.778 69.642 21.706 70.415C 18.696 71.17 15.853 71.888 14.46 70.494C 13.137 69.172 14.077 66.264 15.072 63.185C 16.119 59.95 17.2 56.604 16.032 53.837C 14.894 51.145 11.838 49.565 8.883 48.036C 5.858 46.473 3 44.996 3 42.833C 3 42.709 2.98 42.59 2.952 42.474C 2.98 42.36 2.999 42.242 2.999 42.119C 2.999 39.956 5.856 38.479 8.881 36.916C 11.837 35.388 14.894 33.808 16.031 31.114C 17.199 28.348 16.118 25.003 15.071 21.767C 14.076 18.688 13.135 15.78 14.46 14.457C 15.85 13.064 18.693 13.78 21.705 14.537C 24.775 15.308 27.948 16.109 30.634 14.971C 33.246 13.867 34.915 11.121 36.53 8.466C 38.239 5.653 39.853 2.997 42.122 2.997C 44.42 2.997 46.072 5.604 47.82 8.365C 49.453 10.941 51.14 13.605 53.726 14.7C 56.392 15.827 59.523 15.1 62.551 14.397C 65.544 13.703 68.373 13.046 69.784 14.459C 71.069 15.742 70.021 18.606 68.913 21.638C 67.721 24.898 66.488 28.269 67.676 31.08C 68.823 33.79 72.014 35.38 75.099 36.917C 78.259 38.491 81.244 39.979 81.244 42.119C 81.244 42.243 81.264 42.362 81.292 42.477C 81.264 42.591 81.245 42.709 81.245 42.832C 81.245 44.975 78.26 46.462 75.1 48.036Z"></path> </defs> </svg>
