<svg xmlns="http://www.w3.org/2000/svg" xmlns:xlink="http://www.w3.org/1999/xlink" width="86" height="86"><use xlink:href="#path0_fill" transform="translate(28.4 31.5)"/><use xlink:href="#path1_fill" transform="translate(.9 .5)"/><defs><path id="path0_fill" d="M28 .5l-16.9 19-8.5-8.7A1.5 1.5 0 1 0 .4 13l9.7 9.7c.3.2.7.4 1 .4h.1c.4 0 .8-.2 1.1-.5l18-20.1a1.5 1.5 0 1 0-2.3-2z"/><path id="path1_fill" d="M84.2 42.5V42c0-4-4.1-6-7.8-7.9-2.6-1.3-5.2-2.6-6-4.3-.7-1.7.3-4.5 1.3-7.2 1.4-3.8 2.8-7.7.2-10.4-2.6-2.5-6.4-1.7-10-.8-2.6.6-5.2 1.2-7 .4-1.7-.7-3.2-3-4.5-5.1C48.4 3.6 46 0 42 0c-4 0-6.2 3.7-8.1 7-1.4 2.2-2.8 4.5-4.5 5.2-1.8.8-4.5 0-7-.6-3.8-.9-7.6-1.9-10.2.7-2.6 2.7-1.3 6.6 0 10.4.8 2.7 1.7 5.5 1 7.3-.7 1.6-3.3 3-5.8 4.3C4 36 0 38 0 42v.7c0 4 4 6 7.5 7.9 2.5 1.3 5 2.6 5.8 4.3.7 1.7-.2 4.6-1 7.3-1.3 3.8-2.6 7.7 0 10.3 2.6 2.6 6.4 1.7 10.1.7 2.6-.6 5.3-1.3 7-.6 1.8.8 3.2 3.1 4.6 5.3 2 3.3 4.2 7 8.1 7 4 0 6.2-3.6 8.3-6.8 1.3-2.2 2.8-4.5 4.5-5.2 1.8-.7 4.4-.1 7 .5 3.6.8 7.4 1.7 10-.9 2.6-2.6 1.2-6.5-.2-10.3-1-2.7-2-5.5-1.3-7.3.8-1.6 3.4-3 6-4.3 3.7-1.8 7.8-3.9 7.8-7.9v-.3zM75.1 48c-3 1.6-6.3 3.2-7.4 5.9-1.2 2.8 0 6.2 1.2 9.4 1.1 3 2.2 6 .9 7.2-1.4 1.4-4.3.7-7.2 0-3-.6-6.2-1.4-8.9-.2-2.6 1-4.2 3.7-5.9 6.3-1.7 2.7-3.4 5.4-5.7 5.4-2.2 0-3.9-2.7-5.6-5.5-1.6-2.7-3.3-5.4-5.9-6.5-2.6-1.2-5.8-.4-8.9.4-3 .8-5.8 1.5-7.2 0-1.4-1.2-.4-4.1.6-7.2 1-3.3 2.1-6.6 1-9.4-1.2-2.7-4.3-4.2-7.2-5.8-3-1.5-5.9-3-5.9-5.2v-.3-.4C3 40 5.9 38.5 8.9 37c3-1.5 6-3 7.1-5.8 1.2-2.8.1-6.1-1-9.3-1-3.1-1.9-6-.5-7.3 1.3-1.4 4.2-.7 7.2 0 3 .8 6.2 1.6 9 .5 2.5-1.1 4.2-3.9 5.8-6.5C38.2 5.7 40 3 42.1 3c2.3 0 4 2.6 5.7 5.4 1.7 2.5 3.3 5.2 6 6.3 2.6 1.1 5.7.4 8.8-.3 3-.7 5.8-1.4 7.2 0 1.3 1.3.2 4.2-.9 7.2-1.2 3.3-2.4 6.7-1.2 9.5 1.1 2.7 4.3 4.3 7.4 5.8 3.2 1.6 6.1 3 6.1 5.2v.7c0 2.2-3 3.7-6.1 5.2z"/></defs></svg>