<svg xmlns="http://www.w3.org/2000/svg" xmlns:xlink="http://www.w3.org/1999/xlink" width="94" height="62"><use xlink:href="#path0_fill" transform="translate(24.9 26.4)"/><use xlink:href="#path1_fill" transform="translate(8 27.9)"/><use xlink:href="#path2_fill" transform="translate(66.1 27.9)"/><use xlink:href="#path3_fill" transform="translate(.3 .2)"/><defs><path id="path0_fill" d="M14 27.8A14 14 0 1 0 13.8 0a14 14 0 0 0 0 27.8zM14 3a11 11 0 1 1-.1 21.9 11 11 0 0 1 0-21.9z"/><path id="path1_fill" d="M3 0H0v24.8h3V0z"/><path id="path2_fill" d="M3 0H0v24.8h3V0z"/><path id="path3_fill" d="M93.4 0H17v8.9H9v9.7H0v43h76.2v-9.7h9v-9h8.2V0zM73.2 58.6H3v-37h70.2v37zm9-9.7h-6V18.6H12V12h70.3v37zm8.2-9h-5.2V9h-65V3h70.2v37z"/></defs></svg>