<svg xmlns="http://www.w3.org/2000/svg" viewBox="0 0 100.5 100.5"><path d="M80 28.2a1.5 1.5 0 0 0-.2-.5l-.3-.3-16-16a1.5 1.5 0 0 0-.3-.2l-.4-.2H21.5c-.8 0-1.5.7-1.5 1.5v75c0 .8.7 1.5 1.5 1.5h57c.8 0 1.5-.7 1.5-1.5v-59-.3zm-16-12L74.8 27H64V16zM23 86V14h38v14.5c0 .8.7 1.5 1.5 1.5H77v56H23z"/><path d="M48.3 31.9H29.5a1.5 1.5 0 1 0 0 3h18.8a1.5 1.5 0 1 0 0-3zM48.3 39H29.5a1.5 1.5 0 1 0 0 3h18.8a1.5 1.5 0 1 0 0-3zM48.3 46.1H29.5a1.5 1.5 0 1 0 0 3h18.8a1.5 1.5 0 1 0 0-3zM63 62.4A8.8 8.8 0 1 0 63 80a8.8 8.8 0 0 0 0-17.6zM63 77a5.8 5.8 0 1 1 0-11.6A5.8 5.8 0 0 1 63 77z"/></svg>