<svg xmlns="http://www.w3.org/2000/svg" viewBox="0 0 100.4 100.4"><path d="M84.4 7.9H16c-.9 0-1.5.7-1.5 1.5V91c0 .8.6 1.5 1.5 1.5h68.4c.8 0 1.5-.7 1.5-1.5V9.4c0-.8-.7-1.5-1.5-1.5zm-1.5 81.6H17.5V10.9h65.4v78.6z"/><path d="M25.3 40.2h50.3c.8 0 1.5-.7 1.5-1.5V18.2c0-.8-.7-1.5-1.5-1.5H25.3c-.9 0-1.5.7-1.5 1.5v20.5c0 .8.6 1.5 1.5 1.5zm1.5-20.5H74v17.5H26.8V19.7zM36 47.5H25.8c-.8 0-1.5.6-1.5 1.5v10.2c0 .8.7 1.5 1.5 1.5H36c.8 0 1.5-.7 1.5-1.5V49c0-.9-.7-1.5-1.5-1.5zm-1.5 10.2h-7.2v-7.2h7.2v7.2zM36 67.2H25.8c-.8 0-1.5.7-1.5 1.5V79c0 .8.7 1.5 1.5 1.5H36c.8 0 1.5-.7 1.5-1.5V68.7c0-.8-.7-1.5-1.5-1.5zm-1.5 10.2h-7.2v-7.2h7.2v7.2zM75 47.5H64.8c-.8 0-1.5.6-1.5 1.5v10.2c0 .8.7 1.5 1.5 1.5H75c.9 0 1.5-.7 1.5-1.5V49c0-.9-.6-1.5-1.5-1.5zm-1.5 10.2h-7.2v-7.2h7.2v7.2zM75 67.2H64.8c-.8 0-1.5.7-1.5 1.5V79c0 .8.7 1.5 1.5 1.5H75c.9 0 1.5-.7 1.5-1.5V68.7c0-.8-.6-1.5-1.5-1.5zm-1.5 10.2h-7.2v-7.2h7.2v7.2zM55.8 47.1H45.6c-.8 0-1.5.7-1.5 1.5v10.2c0 .9.7 1.5 1.5 1.5h10.2c.9 0 1.5-.6 1.5-1.5V48.6c0-.8-.6-1.5-1.5-1.5zm-1.5 10.2h-7.2v-7.2h7.2v7.2zM55.8 66.9H45.6c-.8 0-1.5.6-1.5 1.5v10.2c0 .8.7 1.5 1.5 1.5h10.2c.9 0 1.5-.7 1.5-1.5V68.4c0-.9-.6-1.5-1.5-1.5zM54.3 77h-7.2v-7.2h7.2V77z"/></svg>