<svg xmlns="http://www.w3.org/2000/svg" xmlns:xlink="http://www.w3.org/1999/xlink" width="92" height="66"><use xlink:href="#path0_fill" transform="translate(.9 .4)"/><defs><path id="path0_fill" d="M75.7 38.8l-.3-3.6c-.7-7.4-3-17.8-9.6-25.3C60 3.3 51.8 0 41.7 0c-15 0-26.4 9.5-28.2 12.2A38 38 0 0 0 0 41.4v.4c.1.3 2.2 7.9 11 11.9 12.3 5.5 27.9 11.5 44.6 11.5a66 66 0 0 0 10-.8C87.4 61.1 90.2 56 90.2 52c0-.9 0-3.6-14.5-13.2zm-12.2-27c10.4 11.8 9.5 31.7 9.1 36.5l-17.5 4.3c.2-4.1.5-14-.6-22.9C53.2 19 50 6.7 36.4 3.4a34 34 0 0 1 5.3-.4c9.2 0 16.6 3 21.8 8.8zM28.6 5.5c14 0 20.9 7.4 23 24.6 1 8.3.7 17.7.6 22L46.7 49c.5-4.7 1.7-24-7.5-33-5.9-5.8-12-7.5-16.9-7.3 1.8-1 4-2.2 6.3-3.2zM16 14.1l.3-.2.9-.7c3.4-2.2 12-3 20 4.9 7.9 7.8 7 25.2 6.7 30.2-4-.2-15.5-1-25-4.5A28 28 0 0 1 4.3 32c2-7 5.9-13 11.6-17.8zm49.3 47.4c-19.6 3-38.6-4-53-10.6A16.7 16.7 0 0 1 3 41.2c0-1.8.2-3.5.4-5.2 4.5 6 10.2 9 14.4 10.6 11 4.1 24.4 4.6 27 4.7l8.5 4.9 22-5.5.2-1c0-.2.3-3 .3-7.2A42.2 42.2 0 0 1 87.2 52c0 4-7.4 7.2-22 9.5z"/></defs></svg>