<?xml version="1.0" encoding="utf-8"?>
<!-- Generator: Adobe Illustrator 23.0.5, SVG Export Plug-In . SVG Version: 6.00 Build 0)  -->
<svg version="1.1" id="Слой_1" xmlns="http://www.w3.org/2000/svg" xmlns:xlink="http://www.w3.org/1999/xlink" x="0px" y="0px"
	 viewBox="0 0 416.13 90.59" style="enable-background:new 0 0 416.13 90.59;" xml:space="preserve">
<style type="text/css">
	.st0{fill:#FFFFFF;}
</style>
<g>
	<path id="txt" class="st0" d="M163.31,38.98c0,1.97-0.4,3.65-1.19,5.04c-0.79,1.39-1.8,2.53-3.03,3.4s-2.6,1.52-4.1,1.93
		s-2.99,0.62-4.47,0.62h-10.99V13.4c1.64,0.05,3.25,0.1,4.84,0.12c1.59,0.03,3.25,0.04,5,0.04s3.63-0.01,5.66-0.04
		c2.02-0.03,4.32-0.07,6.89-0.12v2.95c-0.88-0.05-1.56-0.11-2.05-0.16s-0.96-0.11-1.39-0.16c-0.44-0.05-0.9-0.08-1.39-0.08
		s-1.15,0-1.97,0H144.3v13.61c1.48,0,3.14,0.03,5,0.08c1.86,0.06,3.83,0.3,5.9,0.74c3.17,0.66,5.32,1.7,6.44,3.12
		C162.74,34.91,163.31,36.74,163.31,38.98z M158.47,39.63c0-2.51-0.79-4.44-2.38-5.78c-1.59-1.34-3.58-2.14-5.99-2.42h-5.99v9.27
		c0,0.16,0,0.52,0,1.07s0,1.18,0,1.89s0.01,1.44,0.04,2.17c0.03,0.74,0.07,1.38,0.12,1.93c0.38,0.06,0.83,0.11,1.35,0.16
		c0.52,0.06,1.01,0.11,1.48,0.16c0.46,0.06,0.89,0.1,1.27,0.12c0.38,0.03,0.63,0.04,0.74,0.04c1.04,0,2.12-0.16,3.24-0.49
		c1.12-0.33,2.13-0.83,3.03-1.52c0.9-0.68,1.64-1.57,2.21-2.67C158.18,42.48,158.47,41.17,158.47,39.63z M173.8,33.73v3.85v2.3
		l0.16,9.1v1.07c-0.49,0-0.94-0.01-1.35-0.04s-0.75-0.04-1.03-0.04c-0.16,0-0.36,0-0.57,0c-0.22,0-0.47,0.03-0.74,0.08h-1.31
		c0.05-0.16,0.08-0.6,0.08-1.31l0.49-10.17l-0.25-18.37l-0.25-5.99c0.38,0.06,0.83,0.08,1.35,0.08s1.13,0,1.84,0l6.4-0.08
		c1.2,0,2.3,0.03,3.28,0.08c0.98,0.06,1.89,0.14,2.71,0.25c1.53,0.16,3.01,0.68,4.43,1.56c1.37,0.88,2.3,2.24,2.79,4.1
		c0.11,0.44,0.19,0.86,0.25,1.27c0.05,0.41,0.08,0.89,0.08,1.44c0,2.24-0.52,4.13-1.56,5.66c-0.93,1.42-2.24,2.54-3.94,3.36
		c-1.48,0.77-3.39,1.34-5.74,1.72c-0.38,0.05-0.83,0.1-1.35,0.12c-0.52,0.03-1.14,0.04-1.85,0.04h-1.97
		c-0.44-0.05-0.81-0.08-1.11-0.08C174.36,33.73,174.07,33.73,173.8,33.73z M173.88,17.57l-0.08,3.03v11.07
		c0.27,0.05,0.62,0.1,1.03,0.12c0.41,0.03,0.92,0.04,1.52,0.04c0.33,0,0.71-0.01,1.15-0.04s0.96-0.07,1.56-0.12
		c2.9-0.33,5-1.23,6.31-2.71c0.66-0.71,1.12-1.59,1.39-2.62c0.38-1.09,0.57-2.16,0.57-3.2c0-1.97-0.57-3.61-1.72-4.92
		c-0.88-0.98-2.27-1.59-4.18-1.8c-1.09-0.16-2.08-0.25-2.95-0.25c-0.6,0-1.29,0.01-2.05,0.04c-0.77,0.03-1.61,0.07-2.54,0.12v1.24
		C173.89,17.57,173.88,17.57,173.88,17.57z M202.75,49.97l2.71-4.51l2.3-4.18l0.98-1.97l0.33-0.41l-0.74-1.72l-10.82-23.54l1.8,0.16
		h1.39l2.21-0.08l0.41,1.48l3.03,7.05l4.84,10.82l0.49,0.33l0.57-1.39l2.05-4.02l2.21-5.49l3.53-8.86c0.27,0.06,0.55,0.1,0.82,0.12
		c0.27,0.03,0.57,0.04,0.9,0.04c0.44,0,0.82-0.01,1.15-0.04s0.63-0.07,0.9-0.12l-13.6,27.96l-3.61,8.36
		c-0.49-0.16-1.07-0.25-1.72-0.25C204.11,49.72,203.4,49.8,202.75,49.97z M258.59,19.95l-0.41,0.08c-0.11-0.11-0.2-0.21-0.29-0.29
		c-0.08-0.08-0.18-0.18-0.29-0.29c-2.73-2.62-5.88-3.94-9.43-3.94c-3.12,0-5.77,0.77-7.95,2.3c-2.19,1.48-3.83,3.5-4.92,6.07
		c-1.09,2.62-1.64,5.41-1.64,8.36c0,0.82,0.07,1.78,0.21,2.87s0.37,2.32,0.7,3.69c0.27,0.98,0.63,1.87,1.07,2.67
		c0.44,0.79,0.96,1.57,1.56,2.34c0.6,0.77,1.3,1.46,2.09,2.09s1.65,1.16,2.58,1.6c1.8,0.88,3.8,1.31,5.99,1.31
		c3.61,0,7.11-1.26,10.5-3.77c0.27-0.27,0.55-0.41,0.82-0.41l-0.49,3.2c-2.9,1.91-6.75,2.87-11.56,2.87c-1.91,0-3.69-0.18-5.33-0.53
		s-3.17-0.91-4.59-1.68c-2.79-1.53-4.92-3.68-6.4-6.46s-2.21-6.11-2.21-9.98c0-2.67,0.55-5.21,1.64-7.61
		c1.04-2.56,2.51-4.64,4.43-6.22c3.66-3.05,8.25-4.58,13.78-4.58c3.83,0,7.57,0.77,11.23,2.3C259.28,16.86,258.92,18.2,258.59,19.95
		z M307.3,38.98c0,1.97-0.4,3.65-1.19,5.04s-1.8,2.53-3.03,3.4s-2.6,1.52-4.1,1.93s-2.99,0.62-4.47,0.62h-10.99V13.4
		c1.64,0.05,3.25,0.1,4.84,0.12c1.59,0.03,3.25,0.04,5,0.04s3.63-0.01,5.66-0.04c2.02-0.03,4.32-0.07,6.89-0.12v2.95
		c-0.88-0.05-1.56-0.11-2.05-0.16s-0.96-0.11-1.39-0.16c-0.44-0.05-0.9-0.08-1.39-0.08c-0.49,0-1.15,0-1.97,0h-10.82v13.61
		c1.48,0,3.14,0.03,5,0.08c1.86,0.06,3.83,0.3,5.9,0.74c3.17,0.66,5.32,1.7,6.44,3.12C306.74,34.91,307.3,36.74,307.3,38.98z
		 M302.47,39.63c0-2.51-0.79-4.44-2.38-5.78s-3.58-2.14-5.99-2.42h-5.99v9.27c0,0.16,0,0.52,0,1.07s0,1.18,0,1.89
		s0.01,1.44,0.04,2.17c0.03,0.74,0.07,1.38,0.12,1.93c0.38,0.06,0.83,0.11,1.35,0.16c0.52,0.06,1.01,0.11,1.48,0.16
		c0.46,0.06,0.89,0.1,1.27,0.12c0.38,0.03,0.63,0.04,0.74,0.04c1.04,0,2.12-0.16,3.24-0.49s2.13-0.83,3.03-1.52
		c0.9-0.68,1.64-1.57,2.21-2.67C302.18,42.48,302.47,41.17,302.47,39.63z M325.26,13.47h1.07l14.84,34.69l0.9,1.89
		c-0.6-0.05-1.12-0.09-1.56-0.12s-0.79-0.04-1.07-0.04c-0.66,0-1.23,0.01-1.72,0.04s-0.88,0.07-1.15,0.12l-0.49-1.56l-2.38-6.23
		l-2.54-6.23l-6.31-0.16l-7.05,0.16c-2.62,6.56-4.35,11.23-5.17,14.02c-0.22-0.05-0.46-0.09-0.74-0.12
		c-0.27-0.03-0.63-0.04-1.07-0.04c-0.22,0-0.49,0.01-0.82,0.04c-0.33,0.03-0.71,0.07-1.15,0.12L325.26,13.47z M325.1,33.81h5.25
		l-5.82-13.45l-5.74,13.45H325.1z M373.97,31.84h-21.81l0.08,11.4l0.25,5.66l0.08,1.15c-1.48-0.16-2.27-0.25-2.38-0.25
		c-0.16,0-0.37,0.01-0.62,0.04s-0.51,0.04-0.78,0.04c-0.33,0.06-0.6,0.1-0.82,0.12c-0.22,0.03-0.41,0.04-0.57,0.04
		c0.05-0.16,0.08-0.55,0.08-1.15l0.25-4.18l0.16-12.22v-2.05V19.62l-0.25-5.49c0.16,0,0.35,0,0.57,0s0.46,0.03,0.74,0.08
		c0.33,0.06,0.6,0.08,0.82,0.08s0.41,0,0.57,0c0.27,0,0.62-0.01,1.03-0.04s0.86-0.07,1.35-0.12c0,0.77-0.03,1.26-0.08,1.48
		l-0.25,4.76l-0.25,9.1l6.81,0.16l15.01-0.16V18.32l-0.25-4.18c0.11,0,0.28,0,0.5,0s0.5,0.03,0.83,0.08
		c0.28,0.06,0.53,0.08,0.75,0.08s0.42,0,0.58,0c0.28,0,0.62-0.01,1.04-0.04s0.9-0.07,1.46-0.12c0,0.11-0.01,0.22-0.04,0.33
		s-0.04,0.25-0.04,0.41s-0.01,0.3-0.04,0.41s-0.04,0.22-0.04,0.33l-0.41,17.06l0.16,11.81l0.25,5.58c-0.17,0-0.35-0.01-0.54-0.04
		s-0.43-0.07-0.71-0.12c-0.28,0-0.51-0.01-0.71-0.04c-0.19-0.03-0.35-0.04-0.46-0.04c-0.17,0-0.38,0.01-0.63,0.04
		s-0.51,0.04-0.79,0.04c-0.33,0.06-0.61,0.1-0.83,0.12c-0.22,0.03-0.42,0.04-0.58,0.04c0.05-0.16,0.08-0.55,0.08-1.15l0.33-5.41
		L373.97,31.84z M415.88,45.99c0.05,1.12,0.14,2.47,0.25,4.06c-0.22-0.05-0.47-0.09-0.74-0.12s-0.63-0.04-1.07-0.04
		s-0.79,0.01-1.07,0.04c-0.27,0.03-0.52,0.07-0.74,0.12l0.33-5l0.08-6.23v-4.18v-7.79l-0.08-4.92l-14.6,15.58l-8.61,9.51l-3.2,3.61
		h-0.74l0.16-5.82l-0.16-11.73l-0.48-12.47l-0.25-5.17c-0.06-0.11-0.08-0.31-0.08-0.61s-0.03-0.51-0.08-0.62
		c0.33,0.06,0.6,0.1,0.82,0.12c0.22,0.03,0.38,0.04,0.49,0.04c0.27,0,0.6-0.01,0.98-0.04s0.82-0.07,1.31-0.12l-0.08,0.41l-0.16,4.18
		v16.81c0,1.26,0.01,2.38,0.04,3.36s0.07,1.78,0.12,2.38l0.33-0.33l25.83-27.64h0.9v17.55l0.33,12.22
		C415.77,43.93,415.82,44.87,415.88,45.99z M147.75,64.12c-0.55-0.77-1.34-1.42-2.72-1.42c-1.56,0-3.29,1.2-3.29,5.78
		c0,3.67,1.54,5.58,3.47,5.58c0.69,0,1.91-0.14,3.13-1.22l0.67,1.4c-1.64,1.34-2.88,1.81-4.51,1.81c-2.39,0-5.58-1.64-5.58-7.57
		c0-5.8,3.82-7.45,6.11-7.45c1.7,0,3.02,0.37,4.06,1.26L147.75,64.12z M157.04,63v12.74h-2.72V63h-3.57v-1.81h9.86V63H157.04z
		 M167.6,69.94c-0.87,0-1.5-0.08-1.7-0.12v5.93h-2.72V61.4c0,0,2.23-0.3,4.38-0.3c3.88,0,5.32,1.77,5.32,4.04
		C172.88,67.61,171.28,69.94,167.6,69.94z M167.38,62.76c-0.61,0-1.22,0.06-1.48,0.1v5.4c0.14,0.04,0.61,0.12,1.34,0.12
		c2.01,0,2.82-1.36,2.82-3.04C170.06,63.75,169.19,62.76,167.38,62.76z M181.62,76.05c-3.25,0-6.09-2.09-6.09-7.57
		c0-6.39,3.86-7.45,6.09-7.45c2.19,0,6.09,0.67,6.09,7.45C187.71,73.39,184.83,76.05,181.62,76.05z M181.62,62.7
		c-1.58,0-3.25,0.85-3.25,5.89c0,4.67,1.85,5.8,3.25,5.8c1.93,0,3.25-1.66,3.25-5.91C184.87,63.65,183.2,62.7,181.62,62.7z
		 M198.66,75.75V65.18l-5.13,10.57h-2.68V61.2h2.72v10.63l5.11-10.63h2.7v14.55H198.66L198.66,75.75z M210.4,63v12.74h-2.72V63
		h-3.57v-1.81h9.86V63H210.4z M216.55,75.75V61.2h7.47v1.81h-4.75v4.2h3.92v1.64h-3.92v5.09h4.97v1.81H216.55L216.55,75.75z
		 M234.18,75.75V63.01h-3.49l-0.16,4.14c-0.04,1.24-0.14,3.47-0.45,4.99c-0.3,1.56-0.67,2.54-1.62,3.27
		c-0.63,0.47-1.54,0.45-2.19,0.45l-0.22-1.97c0,0,0.63-0.04,1.06-0.43c0.45-0.41,0.69-0.93,0.91-2.15c0.16-0.93,0.35-2.92,0.47-6.29
		l0.14-3.81h8.3v14.55L234.18,75.75L234.18,75.75z M244.64,75.93c-1.48,0-3.06-0.22-4-0.41V61.19h2.72v5.89
		c0.22-0.06,1.06-0.2,2.15-0.2c4.02,0,4.91,2.48,4.91,4.18C250.43,73.72,248.7,75.93,244.64,75.93z M244.72,68.6
		c-0.75,0-1.22,0.14-1.36,0.18v5.26c0.24,0.04,0.75,0.12,1.46,0.12c1.48,0,2.72-0.79,2.72-2.94
		C247.54,69.17,246.12,68.6,244.72,68.6z M261.99,64.12c-0.55-0.77-1.34-1.42-2.72-1.42c-1.56,0-3.29,1.2-3.29,5.78
		c0,3.67,1.54,5.58,3.47,5.58c0.69,0,1.91-0.14,3.13-1.22l0.67,1.4c-1.64,1.34-2.88,1.81-4.51,1.81c-2.39,0-5.58-1.64-5.58-7.57
		c0-5.8,3.82-7.45,6.11-7.45c1.7,0,3.02,0.37,4.06,1.26L261.99,64.12z M271.27,63v12.74h-2.72V63h-3.57v-1.81h9.86V63H271.27z
		 M281.5,75.93c-1.48,0-3.63-0.32-4.08-0.41V61.4c0,0,2.07-0.3,4.26-0.3c4.12,0,5.28,1.73,5.28,3.49c0,1.46-0.69,2.72-2.82,3.51
		v0.08c2.31,0.49,3.15,1.85,3.15,3.37C287.28,73.94,285.56,75.93,281.5,75.93z M281.5,62.76c-0.75,0-1.16,0.06-1.36,0.1v4.61h1.2
		c2.21,0,2.8-1.22,2.8-2.66C284.14,63.18,282.67,62.76,281.5,62.76z M281.33,69.05h-1.2v4.99c0.24,0.04,0.83,0.12,1.54,0.12
		c1.54,0,2.72-0.93,2.72-2.62C284.4,69.76,283.32,69.05,281.33,69.05z M296.14,76.05c-3.25,0-6.09-2.09-6.09-7.57
		c0-6.39,3.86-7.45,6.09-7.45c2.19,0,6.09,0.67,6.09,7.45C302.23,73.39,299.35,76.05,296.14,76.05z M296.14,62.7
		c-1.58,0-3.25,0.85-3.25,5.89c0,4.67,1.85,5.8,3.25,5.8c1.93,0,3.25-1.66,3.25-5.91C299.39,63.65,297.73,62.7,296.14,62.7z
		 M318.42,75.75V63.01h-4.59v12.74h-2.72V61.2h10.02v14.55H318.42z M330.69,76.05c-3.25,0-6.09-2.09-6.09-7.57
		c0-6.39,3.86-7.45,6.09-7.45c2.19,0,6.09,0.67,6.09,7.45C336.77,73.39,333.89,76.05,330.69,76.05z M330.69,62.7
		c-1.58,0-3.25,0.85-3.25,5.89c0,4.67,1.85,5.8,3.25,5.8c1.93,0,3.25-1.66,3.25-5.91C333.93,63.65,332.27,62.7,330.69,62.7z
		 M350.93,78.59H349v-2.84h-8.44v2.84h-1.95l-0.16-4.65h0.75c1.36-1.12,2.07-4.91,2.25-8.44l0.22-4.3h8.24v12.74h1.38L350.93,78.59z
		 M347.22,63h-3.47l-0.2,3.19c-0.1,1.64-0.65,6.09-1.79,7.75h5.46L347.22,63L347.22,63z M367.14,75.75l-2.09-4.67
		c-0.61-1.38-0.97-1.93-2.03-1.93h-0.33v6.6h-2.72V61.2h2.72v6.21h0.51c1.06,0,1.62-0.55,2.11-2.01l0.63-1.87
		c0.49-1.46,1.12-2.35,2.88-2.35c0.28,0,0.77,0.02,0.77,0.02l0.04,1.99h-0.37c-0.99,0-1.24,1.16-1.79,2.68
		c-0.51,1.46-1.06,2.01-1.77,2.31v0.08c0.67,0.22,1.16,0.49,2.15,2.62l2.27,4.87L367.14,75.75L367.14,75.75z M379.81,75.75V63.01
		h-3.49l-0.16,4.14c-0.04,1.24-0.14,3.47-0.45,4.99c-0.3,1.56-0.67,2.54-1.62,3.27c-0.63,0.47-1.54,0.45-2.19,0.45l-0.22-1.97
		c0,0,0.63-0.04,1.06-0.43c0.45-0.41,0.69-0.93,0.91-2.15c0.16-0.93,0.35-2.92,0.47-6.29l0.14-3.81h8.3v14.55L379.81,75.75
		L379.81,75.75z M389,68.97v6.78h-2.72V61.2H389v6.19h2.19c0.55-5.42,3.96-6.35,6.05-6.35c2.19,0,6.09,0.67,6.09,7.45
		c0,4.91-2.88,7.57-6.09,7.57c-3.15,0-5.93-1.97-6.09-7.08L389,68.97L389,68.97z M397.24,62.7c-1.58,0-3.25,0.85-3.25,5.89
		c0,4.67,1.85,5.8,3.25,5.8c1.93,0,3.25-1.66,3.25-5.91C400.49,63.65,398.82,62.7,397.24,62.7z M413.38,75.75v-6.7
		c-0.32,0.22-1.64,0.97-3.39,0.97c-3.8,0-3.65-3.11-3.65-3.9v-4.93h2.74v4.22c0,1.44,0.1,2.64,1.97,2.64c1.34,0,2.33-0.81,2.33-0.81
		v-6.05h2.74v14.55L413.38,75.75L413.38,75.75z"/>
	<path id="logo" class="st0" d="M93.46,28.45L63.76,0.41c-0.58-0.54-1.48-0.55-2.06,0L32.04,28.23c-0.3,0.28-0.47,0.67-0.47,1.08
		s0.16,0.8,0.45,1.09l29.67,28.99c0.04,0.04,0.09,0.05,0.13,0.08v29.94c0,0.59,0.37,1.07,0.82,1.07s0.82-0.48,0.82-1.07V59.6
		c0.11-0.06,0.23-0.12,0.33-0.21l29.68-28.77c0.29-0.29,0.46-0.68,0.46-1.09C93.92,29.12,93.75,28.73,93.46,28.45z M63.46,55.53
		V31.34l9.27-7.57c0.34-0.27,0.38-0.76,0.09-1.09c-0.28-0.33-0.79-0.37-1.12-0.1l-8.25,6.73v-8.87c0-0.59-0.37-1.07-0.82-1.07
		s-0.82,0.48-0.82,1.07v19.94l-8.25-6.73c-0.34-0.27-0.84-0.23-1.12,0.1s-0.24,0.82,0.09,1.09l9.27,7.57v12.91L35.22,29.35
		L62.7,3.57l27.53,25.99L63.46,55.53z M55.77,90.59H29.04c-0.4,0-0.78-0.16-1.06-0.44L0.44,62.61c-0.58-0.58-0.59-1.52-0.01-2.11
		l26.89-27.38c0.28-0.29,0.66-0.45,1.06-0.45c0.43,0.02,0.78,0.16,1.07,0.44l27.38,27.38c0.28,0.28,0.44,0.66,0.44,1.06v27.54
		C57.27,89.92,56.6,90.59,55.77,90.59z M29.66,87.59h24.61V62.17L28.4,36.3L3.61,61.54L29.66,87.59z M28.33,47.75l-13.6,13.6
		l13.6,13.6l13.6-13.6L28.33,47.75z M34.37,66.08l-5.03-5.03l4.73-4.73l5.03,5.03L34.37,66.08z M33.37,55.61l-4.73,4.73l-5.03-5.03
		l4.73-4.73L33.37,55.61z M22.9,56.01l5.03,5.03l-5.33,5.33l-5.03-5.03L22.9,56.01z M23.31,67.09l5.33-5.33l5.03,5.03l-5.33,5.33
		L23.31,67.09z M96.19,90.54H69.46c-0.83,0-1.5-0.67-1.5-1.5V61.5c0-0.4,0.16-0.78,0.44-1.06l27.38-27.38
		c0.28-0.28,0.71-0.43,1.07-0.44c0.4,0,0.78,0.16,1.06,0.45l26.89,27.38c0.58,0.59,0.57,1.53-0.01,2.11L97.25,90.1
		C96.97,90.38,96.59,90.54,96.19,90.54z M70.96,87.54h24.61l26.05-26.05L96.83,36.25L70.96,62.12V87.54z M96.89,47.7l-13.6,13.6
		l13.6,13.6l13.6-13.6L96.89,47.7z M102.94,66.02l-5.03-5.03l4.72-4.72l5.03,5.03L102.94,66.02z M101.93,55.56l-4.72,4.72
		l-5.03-5.03l4.72-4.72L101.93,55.56z M91.46,55.96l5.03,5.03l-5.33,5.33l-5.03-5.03L91.46,55.96z M91.87,67.03l5.33-5.33l5.03,5.03
		l-5.33,5.33L91.87,67.03z"/>
</g>
</svg>
